<?xml version="1.0" standalone="no"?>
<!DOCTYPE svg PUBLIC "-//W3C//DTD SVG 20010904//EN"
 "http://www.w3.org/TR/2001/REC-SVG-20010904/DTD/svg10.dtd">
<svg version="1.0" xmlns="http://www.w3.org/2000/svg"
 width="512.000000pt" height="512.000000pt" viewBox="0 0 512.000000 512.000000"
 preserveAspectRatio="xMidYMid meet">

<g transform="translate(0.000000,512.000000) scale(0.100000,-0.100000)"
fill="#000000" stroke="none">
<path d="M1263 4769 c-204 -35 -341 -173 -373 -375 -19 -116 13 -245 84 -342
47 -63 91 -97 181 -139 55 -26 69 -28 180 -28 102 0 129 4 178 24 240 96 343
381 226 627 -77 164 -285 266 -476 233z"/>
<path d="M3706 4769 c-179 -26 -327 -167 -365 -347 -49 -237 86 -466 313 -527
81 -22 228 -17 296 10 179 72 285 231 283 425 -3 231 -152 404 -380 439 -39 6
-75 10 -80 10 -4 -1 -35 -5 -67 -10z"/>
<path d="M2380 4155 c-130 -19 -256 -57 -375 -114 -120 -57 -135 -70 -135
-120 0 -24 7 -44 18 -53 38 -34 58 -31 167 22 154 75 266 101 450 107 218 7
398 -30 603 -123 86 -39 112 -42 137 -14 22 25 25 81 5 105 -18 22 -165 95
-255 128 -182 65 -428 90 -615 62z"/>
<path d="M1218 3689 c-321 -47 -590 -250 -716 -541 -42 -98 -49 -158 -28 -231
23 -78 97 -158 173 -187 54 -20 68 -20 707 -18 l651 3 53 30 c59 32 91 66 125
129 17 32 22 58 22 121 0 73 -4 87 -42 167 -66 138 -134 228 -248 326 -181
156 -460 236 -697 201z"/>
<path d="M3640 3684 c-217 -42 -374 -123 -510 -264 -119 -122 -219 -311 -220
-416 0 -105 60 -209 151 -259 l54 -30 651 -3 c634 -2 653 -2 706 18 64 24 128
83 160 149 35 70 31 163 -11 263 -107 254 -309 434 -576 514 -76 22 -112 27
-235 29 -80 2 -156 1 -170 -1z"/>
<path d="M1053 2502 c-13 -2 -32 -15 -44 -30 -20 -25 -21 -35 -15 -129 19
-325 151 -626 371 -849 86 -87 221 -187 298 -219 41 -17 75 -3 95 37 23 49 7
74 -92 141 -233 158 -409 404 -475 664 -22 86 -41 222 -41 293 0 63 -41 101
-97 92z"/>
<path d="M3995 2465 c-19 -18 -25 -35 -25 -69 0 -126 -41 -310 -100 -448 -80
-187 -240 -377 -413 -492 -93 -62 -117 -87 -117 -124 0 -30 42 -72 72 -72 31
0 161 75 242 139 273 217 466 610 470 954 1 92 -1 100 -23 118 -32 26 -77 24
-106 -6z"/>
<path d="M2490 2363 c-120 -20 -243 -95 -301 -184 -54 -82 -71 -134 -77 -235
-7 -139 28 -243 116 -336 85 -91 198 -138 332 -138 134 0 247 47 332 138 163
174 159 460 -9 628 -97 98 -258 150 -393 127z"/>
<path d="M2465 1279 c-331 -28 -625 -249 -749 -561 -62 -158 -14 -306 125
-383 l54 -30 665 0 665 0 51 27 c144 76 191 226 124 395 -60 149 -184 306
-313 395 -123 84 -282 144 -412 154 -38 3 -81 6 -95 8 -14 1 -66 -1 -115 -5z"/>
</g>
</svg>
